<svg xmlns="http://www.w3.org/2000/svg" viewBox="578 327.5 124 145">
    <path d="m587.263 386.978 20.133 32.435a13.545 13.545 0 0 0 18.652 4.365 13.545 13.545 0 0 0 4.366-18.652l-12.99-20.927a13.545 13.545 0 0 1 4.364-18.652l20.927-12.99a13.545 13.545 0 0 0 4.365-18.652 13.545 13.545 0 0 0-18.652-4.365l-32.435 20.134-11.51 7.144a13.545 13.545 0 0 0-4.364 18.652Z" style="fill:#f5bb00"/>
    <path d="m692.621 412.723-20.335-32.31a13.545 13.545 0 0 0-18.678-4.249h-.001a13.545 13.545 0 0 0-4.249 18.679l13.12 20.846a13.545 13.545 0 0 1-4.248 18.678l-20.846 13.12a13.545 13.545 0 0 0-4.249 18.68 13.545 13.545 0 0 0 18.68 4.248l32.308-20.335 11.465-7.216a13.545 13.545 0 0 0 4.248-18.679Z" style="fill:#f59900"/>
</svg>
